<svg xmlns="http://www.w3.org/2000/svg" viewBox="0 0 148.99 135"><defs><style>.cls-1{fill:none;stroke:#c2cfff;stroke-miterlimit:10;}</style></defs><title>Asset 4</title><g id="Layer_2" data-name="Layer 2"><g id="Layer_4" data-name="Layer 4"><path class="cls-1" d="M1,122,37.22,11.6A16.15,16.15,0,0,1,52.55.5h86.07a9.85,9.85,0,0,1,9,13.9l-.13.29a9.85,9.85,0,0,1-9,5.81H64.67A10.82,10.82,0,0,0,54.4,27.9L50,41.17a4.81,4.81,0,0,0,4.56,6.33H88A7.14,7.14,0,0,1,94.32,58h0A12.26,12.26,0,0,1,83.49,64.5h-35a7.74,7.74,0,0,0-7.35,5.33L22,127.92a9.57,9.57,0,0,1-9.09,6.58H10.07A9.56,9.56,0,0,1,1,122Z"/></g></g></svg>