<svg xmlns="http://www.w3.org/2000/svg" viewBox="0 0 151.33 135"><title>Asset 2</title><g id="Layer_2" data-name="Layer 2"><g id="Layer_4" data-name="Layer 4"><path class="cls-1" d="M.75,128,39,11.6A16.15,16.15,0,0,1,54.3.5H142a8.77,8.77,0,0,1,8,12.37l-1.1,2.46a8.77,8.77,0,0,1-8,5.17H66.41a10.83,10.83,0,0,0-10.27,7.4L51.72,41.17a4.81,4.81,0,0,0,4.56,6.33H89.75A7.14,7.14,0,0,1,96.06,58h0A12.25,12.25,0,0,1,85.23,64.5h-35a7.74,7.74,0,0,0-7.36,5.33L22.73,131.08A5,5,0,0,1,18,134.5H5.48A5,5,0,0,1,.75,128Z"/></g></g></svg>